<?xml version="1.0" encoding="utf-8"?>
<!DOCTYPE svg PUBLIC "-//W3C//DTD SVG 1.1//EN" "http://www.w3.org/Graphics/SVG/1.1/DTD/svg11.dtd">
<svg xmlns="http://www.w3.org/2000/svg" xmlns:xlink="http://www.w3.org/1999/xlink" version="1.1" baseProfile="full" width="800" height="800" viewBox="0 0 800.00 800.00" enable-background="new 0 0 800.00 800.00" xml:space="preserve">
	<line fill="none" stroke-width="35" stroke-linecap="round" stroke-linejoin="round" stroke="#000000" stroke-opacity="1" x1="154.71" y1="544.943" x2="239.667" y2="544.943"/>
	<line fill="none" stroke-width="35" stroke-linecap="round" stroke-linejoin="round" stroke="#000000" stroke-opacity="1" x1="533.001" y1="544.943" x2="604.712" y2="544.943"/>
	<path fill="none" stroke-width="35" stroke-linecap="round" stroke-linejoin="round" stroke="#000000" stroke-opacity="1" d="M 677.058,370.274C 694.029,390.463 703.365,419.52 700.5,450.821C 695.406,506.469 653.681,548.138 607.303,543.893"/>
	<path fill="none" stroke-width="35" stroke-linecap="round" stroke-linejoin="round" stroke="#000000" stroke-opacity="1" d="M 580.781,284.101C 621.267,271.842 664.026,294.725 676.284,335.211C 679.349,345.332 680.217,355.596 679.164,365.49"/>
	<path fill="none" stroke-width="35" stroke-linecap="round" stroke-linejoin="round" stroke="#000000" stroke-opacity="1" d="M 306.624,296.162C 310.797,234.135 354.974,180.623 417.342,168.706C 491.864,154.467 564.138,205.005 578.77,281.585"/>
	<path fill="none" stroke-width="35" stroke-linecap="round" stroke-linejoin="round" stroke="#000000" stroke-opacity="1" d="M 162.297,544.922C 127.615,544.922 99.5002,513.12 99.5002,473.889C 99.5002,434.658 127.615,402.855 162.297,402.855"/>
	<path fill="none" stroke-width="33.3333" stroke-linecap="round" stroke-linejoin="round" stroke="#000000" stroke-opacity="1" d="M 163.303,403.514C 161.34,395.878 160.297,387.874 160.297,379.625C 160.297,326.77 203.145,283.922 256,283.922C 272.517,283.922 288.057,288.107 301.618,295.473"/>
	<g>
		<line fill="none" stroke-width="20" stroke-linecap="square" stroke-linejoin="round" stroke="#000000" stroke-opacity="1" x1="386.362" y1="545.836" x2="386.362" y2="640.503"/>
		<line fill="none" stroke-width="20" stroke-linecap="square" stroke-linejoin="round" stroke="#000000" stroke-opacity="1" x1="427.629" y1="574.057" x2="345.646" y2="621.391"/>
		<line fill="none" stroke-width="20" stroke-linecap="square" stroke-linejoin="round" stroke="#000000" stroke-opacity="1" x1="345.704" y1="571.17" x2="427.688" y2="618.503"/>
	</g>
	<g>
		<line fill="none" stroke-width="20" stroke-linecap="square" stroke-linejoin="round" stroke="#000000" stroke-opacity="1" x1="485.029" y1="425" x2="485.029" y2="519.667"/>
		<line fill="none" stroke-width="20" stroke-linecap="square" stroke-linejoin="round" stroke="#000000" stroke-opacity="1" x1="526.296" y1="453.221" x2="444.312" y2="500.554"/>
		<line fill="none" stroke-width="20" stroke-linecap="square" stroke-linejoin="round" stroke="#000000" stroke-opacity="1" x1="444.371" y1="450.333" x2="526.354" y2="497.667"/>
	</g>
	<g>
		<line fill="none" stroke-width="20" stroke-linecap="square" stroke-linejoin="round" stroke="#000000" stroke-opacity="1" x1="311.696" y1="407.333" x2="311.696" y2="502"/>
		<line fill="none" stroke-width="20" stroke-linecap="square" stroke-linejoin="round" stroke="#000000" stroke-opacity="1" x1="352.963" y1="435.554" x2="270.979" y2="482.888"/>
		<line fill="none" stroke-width="20" stroke-linecap="square" stroke-linejoin="round" stroke="#000000" stroke-opacity="1" x1="271.037" y1="432.667" x2="353.021" y2="480"/>
	</g>
</svg>
