<?xml version="1.0" encoding="utf-8"?>
<!DOCTYPE svg PUBLIC "-//W3C//DTD SVG 1.1//EN" "http://www.w3.org/Graphics/SVG/1.1/DTD/svg11.dtd">
<svg xmlns="http://www.w3.org/2000/svg" xmlns:xlink="http://www.w3.org/1999/xlink" version="1.1" baseProfile="full" width="800" height="800" viewBox="0 0 800.00 800.00" enable-background="new 0 0 800.00 800.00" xml:space="preserve">
	<line fill="none" stroke-width="35" stroke-linecap="round" stroke-linejoin="round" stroke="#000000" stroke-opacity="1" x1="154.71" y1="545.276" x2="239.667" y2="545.276"/>
	<line fill="none" stroke-width="35" stroke-linecap="round" stroke-linejoin="round" stroke="#000000" stroke-opacity="1" x1="533.001" y1="545.276" x2="604.712" y2="545.276"/>
	<path fill="none" stroke-width="35" stroke-linecap="round" stroke-linejoin="round" stroke="#000000" stroke-opacity="1" d="M 677.058,370.607C 694.029,390.796 703.365,419.853 700.5,451.155C 695.406,506.802 653.681,548.472 607.303,544.227"/>
	<path fill="none" stroke-width="35" stroke-linecap="round" stroke-linejoin="round" stroke="#000000" stroke-opacity="1" d="M 580.781,284.434C 621.267,272.175 664.026,295.058 676.284,335.544C 679.349,345.666 680.217,355.929 679.164,365.823"/>
	<path fill="none" stroke-width="35" stroke-linecap="round" stroke-linejoin="round" stroke="#000000" stroke-opacity="1" d="M 306.624,296.496C 310.797,234.468 354.974,180.957 417.342,169.04C 491.864,154.801 564.138,205.338 578.77,281.918"/>
	<path fill="none" stroke-width="35" stroke-linecap="round" stroke-linejoin="round" stroke="#000000" stroke-opacity="1" d="M 162.297,545.256C 127.615,545.256 99.5002,513.453 99.5002,474.222C 99.5002,434.991 127.615,403.188 162.297,403.188"/>
	<path fill="none" stroke-width="33.3333" stroke-linecap="round" stroke-linejoin="round" stroke="#000000" stroke-opacity="1" d="M 163.303,403.848C 161.34,396.212 160.297,388.207 160.297,379.959C 160.297,327.103 203.145,284.256 256,284.256C 272.517,284.256 288.057,288.44 301.618,295.807"/>
	<g>
		<line fill="none" stroke-width="20" stroke-linecap="square" stroke-linejoin="round" stroke="#000000" stroke-opacity="1" x1="323.167" y1="461.333" x2="323.167" y2="521.667"/>
		<line fill="none" stroke-width="20" stroke-linecap="square" stroke-linejoin="round" stroke="#000000" stroke-opacity="1" x1="344.304" y1="479.319" x2="302.312" y2="509.486"/>
		<line fill="none" stroke-width="20" stroke-linecap="square" stroke-linejoin="round" stroke="#000000" stroke-opacity="1" x1="302.342" y1="477.479" x2="344.333" y2="507.646"/>
	</g>
	<g>
		<line fill="none" stroke-width="20" stroke-linecap="square" stroke-linejoin="round" stroke="#000000" stroke-opacity="1" x1="423.178" y1="393.167" x2="423.178" y2="453.5"/>
		<line fill="none" stroke-width="20" stroke-linecap="square" stroke-linejoin="round" stroke="#000000" stroke-opacity="1" x1="444.314" y1="411.153" x2="402.323" y2="441.319"/>
		<line fill="none" stroke-width="20" stroke-linecap="square" stroke-linejoin="round" stroke="#000000" stroke-opacity="1" x1="402.353" y1="409.312" x2="444.344" y2="439.479"/>
	</g>
	<g>
		<line fill="none" stroke-width="20" stroke-linecap="square" stroke-linejoin="round" stroke="#000000" stroke-opacity="1" x1="370.511" y1="575.167" x2="370.511" y2="635.5"/>
		<line fill="none" stroke-width="20" stroke-linecap="square" stroke-linejoin="round" stroke="#000000" stroke-opacity="1" x1="391.647" y1="593.153" x2="349.656" y2="623.319"/>
		<line fill="none" stroke-width="20" stroke-linecap="square" stroke-linejoin="round" stroke="#000000" stroke-opacity="1" x1="349.686" y1="591.312" x2="391.677" y2="621.479"/>
	</g>
	<g>
		<line fill="none" stroke-width="20" stroke-linecap="square" stroke-linejoin="round" stroke="#000000" stroke-opacity="1" x1="461.844" y1="505.167" x2="461.844" y2="565.5"/>
		<line fill="none" stroke-width="20" stroke-linecap="square" stroke-linejoin="round" stroke="#000000" stroke-opacity="1" x1="482.981" y1="523.153" x2="440.99" y2="553.319"/>
		<line fill="none" stroke-width="20" stroke-linecap="square" stroke-linejoin="round" stroke="#000000" stroke-opacity="1" x1="441.019" y1="521.312" x2="483.01" y2="551.479"/>
	</g>
</svg>
