<?xml version="1.0" encoding="utf-8"?>
<!DOCTYPE svg PUBLIC "-//W3C//DTD SVG 1.1//EN" "http://www.w3.org/Graphics/SVG/1.1/DTD/svg11.dtd">
<svg xmlns="http://www.w3.org/2000/svg" xmlns:xlink="http://www.w3.org/1999/xlink" version="1.1" baseProfile="full" width="800" height="800" viewBox="0 0 800.00 800.00" enable-background="new 0 0 800.00 800.00" xml:space="preserve">
	<line fill="none" stroke-width="35" stroke-linecap="round" stroke-linejoin="round" stroke="#000000" stroke-opacity="1" x1="154.71" y1="582.037" x2="239.667" y2="582.037"/>
	<line fill="none" stroke-width="35" stroke-linecap="round" stroke-linejoin="round" stroke="#000000" stroke-opacity="1" x1="533.001" y1="582.037" x2="604.712" y2="582.037"/>
	<path fill="none" stroke-width="35" stroke-linecap="round" stroke-linejoin="round" stroke="#000000" stroke-opacity="1" d="M 677.058,407.368C 694.029,427.557 703.365,456.614 700.5,487.915C 695.406,543.563 653.681,585.232 607.303,580.987"/>
	<path fill="none" stroke-width="35" stroke-linecap="round" stroke-linejoin="round" stroke="#000000" stroke-opacity="1" d="M 580.781,321.195C 621.267,308.936 664.026,331.819 676.284,372.305C 679.349,382.427 680.217,392.69 679.164,402.584"/>
	<path fill="none" stroke-width="35" stroke-linecap="round" stroke-linejoin="round" stroke="#000000" stroke-opacity="1" d="M 306.624,333.257C 310.797,271.229 354.974,217.717 417.342,205.8C 491.864,191.561 564.138,242.099 578.77,318.679"/>
	<path fill="none" stroke-width="35" stroke-linecap="round" stroke-linejoin="round" stroke="#000000" stroke-opacity="1" d="M 162.297,582.017C 127.615,582.017 99.5002,550.214 99.5002,510.983C 99.5002,471.752 127.615,439.949 162.297,439.949"/>
	<path fill="none" stroke-width="33.3333" stroke-linecap="round" stroke-linejoin="round" stroke="#000000" stroke-opacity="1" d="M 163.303,440.608C 161.34,432.972 160.297,424.968 160.297,416.72C 160.297,363.864 203.145,321.017 256,321.017C 272.517,321.017 288.057,325.201 301.618,332.567"/>
	<line fill="none" stroke-width="35" stroke-linecap="square" stroke-linejoin="round" stroke="#000000" stroke-opacity="1" x1="315" y1="511.467" x2="296.333" y2="567.467"/>
	<line fill="none" stroke-width="35" stroke-linecap="square" stroke-linejoin="round" stroke="#000000" stroke-opacity="1" x1="480.333" y1="511.467" x2="461.667" y2="567.467"/>
	<line fill="none" stroke-width="35" stroke-linecap="square" stroke-linejoin="round" stroke="#000000" stroke-opacity="1" x1="385" y1="564.8" x2="366.333" y2="620.8"/>
	<g>
		<line fill="none" stroke-width="20" stroke-linecap="square" stroke-linejoin="round" stroke="#000000" stroke-opacity="1" x1="302.176" y1="635.556" x2="302.176" y2="671.389"/>
		<line fill="none" stroke-width="20" stroke-linecap="square" stroke-linejoin="round" stroke="#000000" stroke-opacity="1" x1="318.659" y1="646.238" x2="285.912" y2="664.155"/>
		<line fill="none" stroke-width="20" stroke-linecap="square" stroke-linejoin="round" stroke="#000000" stroke-opacity="1" x1="285.935" y1="645.145" x2="318.683" y2="663.062"/>
	</g>
	<g>
		<line fill="none" stroke-width="20" stroke-linecap="square" stroke-linejoin="round" stroke="#000000" stroke-opacity="1" x1="433.311" y1="625.139" x2="433.311" y2="660.972"/>
		<line fill="none" stroke-width="20" stroke-linecap="square" stroke-linejoin="round" stroke="#000000" stroke-opacity="1" x1="449.795" y1="635.821" x2="417.047" y2="653.738"/>
		<line fill="none" stroke-width="20" stroke-linecap="square" stroke-linejoin="round" stroke="#000000" stroke-opacity="1" x1="417.07" y1="634.728" x2="449.818" y2="652.645"/>
	</g>
</svg>
