<?xml version="1.0" encoding="utf-8"?>
<!DOCTYPE svg PUBLIC "-//W3C//DTD SVG 1.1//EN" "http://www.w3.org/Graphics/SVG/1.1/DTD/svg11.dtd">
<svg xmlns="http://www.w3.org/2000/svg" xmlns:xlink="http://www.w3.org/1999/xlink" version="1.1" baseProfile="full" width="800" height="800" viewBox="0 0 800.00 800.00" enable-background="new 0 0 800.00 800.00" xml:space="preserve">
	<path fill="none" stroke-width="35" stroke-linejoin="round" stroke="#000000" stroke-opacity="1" d="M 285.666,399.667C 285.666,324.74 346.406,264 421.332,264"/>
	<path fill="none" stroke-width="35" stroke-linejoin="round" stroke="#000000" stroke-opacity="1" d="M 556.999,399.667C 556.999,474.593 496.259,535.333 421.332,535.333"/>
	<line fill="none" stroke-width="35" stroke-linejoin="round" stroke="#000000" stroke-opacity="1" x1="417.666" y1="218" x2="417.666" y2="112.667"/>
	<line fill="none" stroke-width="35" stroke-linejoin="round" stroke="#000000" stroke-opacity="1" x1="416.666" y1="687.333" x2="416.666" y2="582"/>
	<line fill="none" stroke-width="35" stroke-linejoin="round" stroke="#000000" stroke-opacity="1" x1="212.351" y1="192.659" x2="286.759" y2="267.214"/>
	<line fill="none" stroke-width="35" stroke-linejoin="round" stroke="#000000" stroke-opacity="1" x1="546.715" y1="528.633" x2="621.123" y2="603.188"/>
	<g>
		<line fill="none" stroke-width="35" stroke-linejoin="round" stroke="#000000" stroke-opacity="1" x1="92.6678" y1="404.667" x2="127.668" y2="404.667"/>
		<line fill="none" stroke-width="35" stroke-linejoin="round" stroke="#000000" stroke-opacity="1" x1="151.832" y1="404.667" x2="186.832" y2="404.667"/>
		<line fill="none" stroke-width="35" stroke-linejoin="round" stroke="#000000" stroke-opacity="1" x1="208.497" y1="404.667" x2="243.497" y2="404.667"/>
		<line fill="none" stroke-width="35" stroke-linejoin="round" stroke="#000000" stroke-opacity="1" x1="267.842" y1="404.667" x2="302.842" y2="404.667"/>
		<line fill="none" stroke-width="35" stroke-linejoin="round" stroke="#000000" stroke-opacity="1" x1="325.499" y1="404.667" x2="360.499" y2="404.667"/>
	</g>
	<g>
		<line fill="none" stroke-width="35" stroke-linejoin="round" stroke="#000000" stroke-opacity="1" x1="122.75" y1="471" x2="157.75" y2="471"/>
		<line fill="none" stroke-width="35" stroke-linejoin="round" stroke="#000000" stroke-opacity="1" x1="181.914" y1="471" x2="216.914" y2="471"/>
		<line fill="none" stroke-width="35" stroke-linejoin="round" stroke="#000000" stroke-opacity="1" x1="238.58" y1="471" x2="273.58" y2="471"/>
		<line fill="none" stroke-width="35" stroke-linejoin="round" stroke="#000000" stroke-opacity="1" x1="297.924" y1="471" x2="332.924" y2="471"/>
		<line fill="none" stroke-width="35" stroke-linejoin="round" stroke="#000000" stroke-opacity="1" x1="355.581" y1="471" x2="390.581" y2="471"/>
	</g>
	<g>
		<line fill="none" stroke-width="35" stroke-linejoin="round" stroke="#000000" stroke-opacity="1" x1="102.75" y1="536.333" x2="137.75" y2="536.333"/>
		<line fill="none" stroke-width="35" stroke-linejoin="round" stroke="#000000" stroke-opacity="1" x1="161.914" y1="536.333" x2="196.914" y2="536.333"/>
		<line fill="none" stroke-width="35" stroke-linejoin="round" stroke="#000000" stroke-opacity="1" x1="218.58" y1="536.333" x2="253.58" y2="536.333"/>
		<line fill="none" stroke-width="35" stroke-linejoin="round" stroke="#000000" stroke-opacity="1" x1="277.924" y1="536.333" x2="312.924" y2="536.333"/>
		<line fill="none" stroke-width="35" stroke-linejoin="round" stroke="#000000" stroke-opacity="1" x1="335.581" y1="536.333" x2="370.581" y2="536.333"/>
	</g>
	<g>
		<line fill="none" stroke-width="35" stroke-linejoin="round" stroke="#000000" stroke-opacity="1" x1="438.335" y1="224.167" x2="473.335" y2="224.167"/>
		<line fill="none" stroke-width="35" stroke-linejoin="round" stroke="#000000" stroke-opacity="1" x1="497.5" y1="224.167" x2="532.5" y2="224.167"/>
		<line fill="none" stroke-width="35" stroke-linejoin="round" stroke="#000000" stroke-opacity="1" x1="554.165" y1="224.167" x2="589.165" y2="224.167"/>
		<line fill="none" stroke-width="35" stroke-linejoin="round" stroke="#000000" stroke-opacity="1" x1="613.51" y1="224.167" x2="648.51" y2="224.167"/>
		<line fill="none" stroke-width="35" stroke-linejoin="round" stroke="#000000" stroke-opacity="1" x1="671.167" y1="224.167" x2="706.167" y2="224.167"/>
	</g>
	<g>
		<line fill="none" stroke-width="35" stroke-linejoin="round" stroke="#000000" stroke-opacity="1" x1="468.418" y1="290.5" x2="503.418" y2="290.5"/>
		<line fill="none" stroke-width="35" stroke-linejoin="round" stroke="#000000" stroke-opacity="1" x1="527.582" y1="290.5" x2="562.582" y2="290.5"/>
		<line fill="none" stroke-width="35" stroke-linejoin="round" stroke="#000000" stroke-opacity="1" x1="584.247" y1="290.5" x2="619.247" y2="290.5"/>
		<line fill="none" stroke-width="35" stroke-linejoin="round" stroke="#000000" stroke-opacity="1" x1="643.592" y1="290.5" x2="678.592" y2="290.5"/>
		<line fill="none" stroke-width="35" stroke-linejoin="round" stroke="#000000" stroke-opacity="1" x1="701.249" y1="290.5" x2="736.249" y2="290.5"/>
	</g>
	<g>
		<line fill="none" stroke-width="35" stroke-linejoin="round" stroke="#000000" stroke-opacity="1" x1="448.418" y1="355.833" x2="483.418" y2="355.833"/>
		<line fill="none" stroke-width="35" stroke-linejoin="round" stroke="#000000" stroke-opacity="1" x1="507.582" y1="355.833" x2="542.582" y2="355.833"/>
		<line fill="none" stroke-width="35" stroke-linejoin="round" stroke="#000000" stroke-opacity="1" x1="564.247" y1="355.833" x2="599.247" y2="355.833"/>
		<line fill="none" stroke-width="35" stroke-linejoin="round" stroke="#000000" stroke-opacity="1" x1="623.592" y1="355.833" x2="658.592" y2="355.833"/>
		<line fill="none" stroke-width="35" stroke-linejoin="round" stroke="#000000" stroke-opacity="1" x1="681.249" y1="355.833" x2="716.249" y2="355.833"/>
	</g>
</svg>
