<?xml version="1.0" encoding="utf-8"?>
<!DOCTYPE svg PUBLIC "-//W3C//DTD SVG 1.1//EN" "http://www.w3.org/Graphics/SVG/1.1/DTD/svg11.dtd">
<svg xmlns="http://www.w3.org/2000/svg" xmlns:xlink="http://www.w3.org/1999/xlink" version="1.1" baseProfile="full" width="800" height="800" viewBox="0 0 800.00 800.00" enable-background="new 0 0 800.00 800.00" xml:space="preserve">
	<path fill="none" stroke-width="35" stroke-linejoin="round" stroke="#000000" stroke-opacity="1" d="M 271.207,399.667C 271.207,324.74 331.947,264 406.874,264"/>
	<line fill="none" stroke-width="35" stroke-linejoin="round" stroke="#000000" stroke-opacity="1" x1="403.207" y1="218" x2="403.207" y2="112.667"/>
	<line fill="none" stroke-width="35" stroke-linejoin="round" stroke="#000000" stroke-opacity="1" x1="197.892" y1="192.659" x2="272.301" y2="267.214"/>
	<g>
		<line fill="none" stroke-width="35" stroke-linejoin="round" stroke="#000000" stroke-opacity="1" x1="78.2095" y1="404.667" x2="113.209" y2="404.667"/>
		<line fill="none" stroke-width="35" stroke-linejoin="round" stroke="#000000" stroke-opacity="1" x1="137.374" y1="404.667" x2="172.374" y2="404.667"/>
		<line fill="none" stroke-width="35" stroke-linejoin="round" stroke="#000000" stroke-opacity="1" x1="194.039" y1="404.667" x2="229.039" y2="404.667"/>
		<line fill="none" stroke-width="35" stroke-linejoin="round" stroke="#000000" stroke-opacity="1" x1="253.384" y1="404.667" x2="288.384" y2="404.667"/>
		<line fill="none" stroke-width="35" stroke-linejoin="round" stroke="#000000" stroke-opacity="1" x1="311.041" y1="404.667" x2="346.041" y2="404.667"/>
	</g>
	<g>
		<line fill="none" stroke-width="35" stroke-linejoin="round" stroke="#000000" stroke-opacity="1" x1="108.292" y1="471" x2="143.292" y2="471"/>
		<line fill="none" stroke-width="35" stroke-linejoin="round" stroke="#000000" stroke-opacity="1" x1="167.456" y1="471" x2="202.456" y2="471"/>
		<line fill="none" stroke-width="35" stroke-linejoin="round" stroke="#000000" stroke-opacity="1" x1="224.121" y1="471" x2="259.121" y2="471"/>
		<line fill="none" stroke-width="35" stroke-linejoin="round" stroke="#000000" stroke-opacity="1" x1="283.466" y1="471" x2="318.466" y2="471"/>
		<line fill="none" stroke-width="35" stroke-linejoin="round" stroke="#000000" stroke-opacity="1" x1="341.123" y1="471" x2="376.123" y2="471"/>
	</g>
	<g>
		<line fill="none" stroke-width="35" stroke-linejoin="round" stroke="#000000" stroke-opacity="1" x1="88.2917" y1="536.333" x2="123.292" y2="536.333"/>
		<line fill="none" stroke-width="35" stroke-linejoin="round" stroke="#000000" stroke-opacity="1" x1="147.456" y1="536.333" x2="182.456" y2="536.333"/>
		<line fill="none" stroke-width="35" stroke-linejoin="round" stroke="#000000" stroke-opacity="1" x1="204.121" y1="536.333" x2="239.121" y2="536.333"/>
		<line fill="none" stroke-width="35" stroke-linejoin="round" stroke="#000000" stroke-opacity="1" x1="263.466" y1="536.333" x2="298.466" y2="536.333"/>
		<line fill="none" stroke-width="35" stroke-linejoin="round" stroke="#000000" stroke-opacity="1" x1="321.123" y1="536.333" x2="356.123" y2="536.333"/>
	</g>
	<g>
		<line fill="none" stroke-width="35" stroke-linejoin="round" stroke="#000000" stroke-opacity="1" x1="444.877" y1="224.167" x2="479.877" y2="224.167"/>
		<line fill="none" stroke-width="35" stroke-linejoin="round" stroke="#000000" stroke-opacity="1" x1="504.042" y1="224.167" x2="539.042" y2="224.167"/>
		<line fill="none" stroke-width="35" stroke-linejoin="round" stroke="#000000" stroke-opacity="1" x1="560.707" y1="224.167" x2="595.707" y2="224.167"/>
		<line fill="none" stroke-width="35" stroke-linejoin="round" stroke="#000000" stroke-opacity="1" x1="620.051" y1="224.167" x2="655.051" y2="224.167"/>
		<line fill="none" stroke-width="35" stroke-linejoin="round" stroke="#000000" stroke-opacity="1" x1="677.708" y1="224.167" x2="712.708" y2="224.167"/>
	</g>
	<g>
		<line fill="none" stroke-width="35" stroke-linejoin="round" stroke="#000000" stroke-opacity="1" x1="474.959" y1="290.5" x2="509.959" y2="290.5"/>
		<line fill="none" stroke-width="35" stroke-linejoin="round" stroke="#000000" stroke-opacity="1" x1="534.124" y1="290.5" x2="569.124" y2="290.5"/>
		<line fill="none" stroke-width="35" stroke-linejoin="round" stroke="#000000" stroke-opacity="1" x1="590.789" y1="290.5" x2="625.789" y2="290.5"/>
		<line fill="none" stroke-width="35" stroke-linejoin="round" stroke="#000000" stroke-opacity="1" x1="650.134" y1="290.5" x2="685.134" y2="290.5"/>
		<line fill="none" stroke-width="35" stroke-linejoin="round" stroke="#000000" stroke-opacity="1" x1="707.791" y1="290.5" x2="742.791" y2="290.5"/>
	</g>
	<g>
		<line fill="none" stroke-width="35" stroke-linejoin="round" stroke="#000000" stroke-opacity="1" x1="454.959" y1="355.833" x2="489.959" y2="355.833"/>
		<line fill="none" stroke-width="35" stroke-linejoin="round" stroke="#000000" stroke-opacity="1" x1="514.124" y1="355.833" x2="549.124" y2="355.833"/>
		<line fill="none" stroke-width="35" stroke-linejoin="round" stroke="#000000" stroke-opacity="1" x1="570.789" y1="355.833" x2="605.789" y2="355.833"/>
		<line fill="none" stroke-width="35" stroke-linejoin="round" stroke="#000000" stroke-opacity="1" x1="630.134" y1="355.833" x2="665.134" y2="355.833"/>
		<line fill="none" stroke-width="35" stroke-linejoin="round" stroke="#000000" stroke-opacity="1" x1="687.791" y1="355.833" x2="722.791" y2="355.833"/>
	</g>
	<g>
		<line fill="none" stroke-width="35" stroke-linejoin="round" stroke="#000000" stroke-opacity="1" x1="371.043" y1="405.167" x2="406.043" y2="405.167"/>
		<line fill="none" stroke-width="35" stroke-linejoin="round" stroke="#000000" stroke-opacity="1" x1="430.208" y1="405.167" x2="465.208" y2="405.167"/>
		<line fill="none" stroke-width="35" stroke-linejoin="round" stroke="#000000" stroke-opacity="1" x1="486.873" y1="405.167" x2="521.873" y2="405.167"/>
		<line fill="none" stroke-width="35" stroke-linejoin="round" stroke="#000000" stroke-opacity="1" x1="546.217" y1="405.167" x2="581.217" y2="405.167"/>
		<line fill="none" stroke-width="35" stroke-linejoin="round" stroke="#000000" stroke-opacity="1" x1="603.875" y1="405.167" x2="638.874" y2="405.167"/>
	</g>
	<g>
		<line fill="none" stroke-width="35" stroke-linejoin="round" stroke="#000000" stroke-opacity="1" x1="401.126" y1="471.5" x2="436.126" y2="471.5"/>
		<line fill="none" stroke-width="35" stroke-linejoin="round" stroke="#000000" stroke-opacity="1" x1="460.29" y1="471.5" x2="495.29" y2="471.5"/>
		<line fill="none" stroke-width="35" stroke-linejoin="round" stroke="#000000" stroke-opacity="1" x1="516.955" y1="471.5" x2="551.955" y2="471.5"/>
		<line fill="none" stroke-width="35" stroke-linejoin="round" stroke="#000000" stroke-opacity="1" x1="576.3" y1="471.5" x2="611.3" y2="471.5"/>
		<line fill="none" stroke-width="35" stroke-linejoin="round" stroke="#000000" stroke-opacity="1" x1="633.957" y1="471.5" x2="668.957" y2="471.5"/>
	</g>
	<g>
		<line fill="none" stroke-width="35" stroke-linejoin="round" stroke="#000000" stroke-opacity="1" x1="381.126" y1="536.833" x2="416.126" y2="536.833"/>
		<line fill="none" stroke-width="35" stroke-linejoin="round" stroke="#000000" stroke-opacity="1" x1="440.29" y1="536.833" x2="475.29" y2="536.833"/>
		<line fill="none" stroke-width="35" stroke-linejoin="round" stroke="#000000" stroke-opacity="1" x1="496.955" y1="536.833" x2="531.955" y2="536.833"/>
		<line fill="none" stroke-width="35" stroke-linejoin="round" stroke="#000000" stroke-opacity="1" x1="556.3" y1="536.833" x2="591.3" y2="536.833"/>
		<line fill="none" stroke-width="35" stroke-linejoin="round" stroke="#000000" stroke-opacity="1" x1="613.957" y1="536.833" x2="648.957" y2="536.833"/>
	</g>
</svg>
