<?xml version="1.0" encoding="utf-8"?>
<!DOCTYPE svg PUBLIC "-//W3C//DTD SVG 1.1//EN" "http://www.w3.org/Graphics/SVG/1.1/DTD/svg11.dtd">
<svg xmlns="http://www.w3.org/2000/svg" xmlns:xlink="http://www.w3.org/1999/xlink" version="1.1" baseProfile="full" width="800" height="800" viewBox="0 0 800.00 800.00" enable-background="new 0 0 800.00 800.00" xml:space="preserve">
	<g>
		<line fill="none" stroke-width="35" stroke-linejoin="round" stroke="#000000" stroke-opacity="1" x1="102.71" y1="401.167" x2="137.71" y2="401.167"/>
		<line fill="none" stroke-width="35" stroke-linejoin="round" stroke="#000000" stroke-opacity="1" x1="161.874" y1="401.167" x2="196.874" y2="401.167"/>
		<line fill="none" stroke-width="35" stroke-linejoin="round" stroke="#000000" stroke-opacity="1" x1="218.54" y1="401.167" x2="253.54" y2="401.167"/>
		<line fill="none" stroke-width="35" stroke-linejoin="round" stroke="#000000" stroke-opacity="1" x1="277.884" y1="401.167" x2="312.884" y2="401.167"/>
		<line fill="none" stroke-width="35" stroke-linejoin="round" stroke="#000000" stroke-opacity="1" x1="335.541" y1="401.167" x2="370.541" y2="401.167"/>
	</g>
	<g>
		<line fill="none" stroke-width="35" stroke-linejoin="round" stroke="#000000" stroke-opacity="1" x1="132.792" y1="467.5" x2="167.792" y2="467.5"/>
		<line fill="none" stroke-width="35" stroke-linejoin="round" stroke="#000000" stroke-opacity="1" x1="191.957" y1="467.5" x2="226.957" y2="467.5"/>
		<line fill="none" stroke-width="35" stroke-linejoin="round" stroke="#000000" stroke-opacity="1" x1="248.622" y1="467.5" x2="283.622" y2="467.5"/>
		<line fill="none" stroke-width="35" stroke-linejoin="round" stroke="#000000" stroke-opacity="1" x1="307.966" y1="467.5" x2="342.966" y2="467.5"/>
		<line fill="none" stroke-width="35" stroke-linejoin="round" stroke="#000000" stroke-opacity="1" x1="365.623" y1="467.5" x2="400.623" y2="467.5"/>
	</g>
	<g>
		<line fill="none" stroke-width="35" stroke-linejoin="round" stroke="#000000" stroke-opacity="1" x1="112.792" y1="532.833" x2="147.792" y2="532.833"/>
		<line fill="none" stroke-width="35" stroke-linejoin="round" stroke="#000000" stroke-opacity="1" x1="171.957" y1="532.833" x2="206.957" y2="532.833"/>
		<line fill="none" stroke-width="35" stroke-linejoin="round" stroke="#000000" stroke-opacity="1" x1="228.622" y1="532.833" x2="263.622" y2="532.833"/>
		<line fill="none" stroke-width="35" stroke-linejoin="round" stroke="#000000" stroke-opacity="1" x1="287.966" y1="532.833" x2="322.966" y2="532.833"/>
		<line fill="none" stroke-width="35" stroke-linejoin="round" stroke="#000000" stroke-opacity="1" x1="345.623" y1="532.833" x2="380.623" y2="532.833"/>
	</g>
	<g>
		<line fill="none" stroke-width="35" stroke-linejoin="round" stroke="#000000" stroke-opacity="1" x1="394.043" y1="401.167" x2="429.043" y2="401.167"/>
		<line fill="none" stroke-width="35" stroke-linejoin="round" stroke="#000000" stroke-opacity="1" x1="453.208" y1="401.167" x2="488.208" y2="401.167"/>
		<line fill="none" stroke-width="35" stroke-linejoin="round" stroke="#000000" stroke-opacity="1" x1="509.873" y1="401.167" x2="544.873" y2="401.167"/>
		<line fill="none" stroke-width="35" stroke-linejoin="round" stroke="#000000" stroke-opacity="1" x1="569.217" y1="401.167" x2="604.217" y2="401.167"/>
		<line fill="none" stroke-width="35" stroke-linejoin="round" stroke="#000000" stroke-opacity="1" x1="626.875" y1="401.167" x2="661.874" y2="401.167"/>
	</g>
	<g>
		<line fill="none" stroke-width="35" stroke-linejoin="round" stroke="#000000" stroke-opacity="1" x1="424.126" y1="467.5" x2="459.126" y2="467.5"/>
		<line fill="none" stroke-width="35" stroke-linejoin="round" stroke="#000000" stroke-opacity="1" x1="483.29" y1="467.5" x2="518.29" y2="467.5"/>
		<line fill="none" stroke-width="35" stroke-linejoin="round" stroke="#000000" stroke-opacity="1" x1="539.955" y1="467.5" x2="574.955" y2="467.5"/>
		<line fill="none" stroke-width="35" stroke-linejoin="round" stroke="#000000" stroke-opacity="1" x1="599.3" y1="467.5" x2="634.3" y2="467.5"/>
		<line fill="none" stroke-width="35" stroke-linejoin="round" stroke="#000000" stroke-opacity="1" x1="656.957" y1="467.5" x2="691.957" y2="467.5"/>
	</g>
	<g>
		<line fill="none" stroke-width="35" stroke-linejoin="round" stroke="#000000" stroke-opacity="1" x1="404.126" y1="532.833" x2="439.126" y2="532.833"/>
		<line fill="none" stroke-width="35" stroke-linejoin="round" stroke="#000000" stroke-opacity="1" x1="463.29" y1="532.833" x2="498.29" y2="532.833"/>
		<line fill="none" stroke-width="35" stroke-linejoin="round" stroke="#000000" stroke-opacity="1" x1="519.955" y1="532.833" x2="554.955" y2="532.833"/>
		<line fill="none" stroke-width="35" stroke-linejoin="round" stroke="#000000" stroke-opacity="1" x1="579.3" y1="532.833" x2="614.3" y2="532.833"/>
		<line fill="none" stroke-width="35" stroke-linejoin="round" stroke="#000000" stroke-opacity="1" x1="636.957" y1="532.833" x2="671.957" y2="532.833"/>
	</g>
	<g>
		<line fill="none" stroke-width="35" stroke-linejoin="round" stroke="#000000" stroke-opacity="1" x1="118.377" y1="206.167" x2="153.377" y2="206.167"/>
		<line fill="none" stroke-width="35" stroke-linejoin="round" stroke="#000000" stroke-opacity="1" x1="177.541" y1="206.167" x2="212.541" y2="206.167"/>
		<line fill="none" stroke-width="35" stroke-linejoin="round" stroke="#000000" stroke-opacity="1" x1="234.206" y1="206.167" x2="269.206" y2="206.167"/>
		<line fill="none" stroke-width="35" stroke-linejoin="round" stroke="#000000" stroke-opacity="1" x1="293.551" y1="206.167" x2="328.551" y2="206.167"/>
		<line fill="none" stroke-width="35" stroke-linejoin="round" stroke="#000000" stroke-opacity="1" x1="351.208" y1="206.167" x2="386.208" y2="206.167"/>
	</g>
	<g>
		<line fill="none" stroke-width="35" stroke-linejoin="round" stroke="#000000" stroke-opacity="1" x1="148.459" y1="272.5" x2="183.459" y2="272.5"/>
		<line fill="none" stroke-width="35" stroke-linejoin="round" stroke="#000000" stroke-opacity="1" x1="207.623" y1="272.5" x2="242.623" y2="272.5"/>
		<line fill="none" stroke-width="35" stroke-linejoin="round" stroke="#000000" stroke-opacity="1" x1="264.289" y1="272.5" x2="299.289" y2="272.5"/>
		<line fill="none" stroke-width="35" stroke-linejoin="round" stroke="#000000" stroke-opacity="1" x1="323.633" y1="272.5" x2="358.633" y2="272.5"/>
		<line fill="none" stroke-width="35" stroke-linejoin="round" stroke="#000000" stroke-opacity="1" x1="381.29" y1="272.5" x2="416.29" y2="272.5"/>
	</g>
	<g>
		<line fill="none" stroke-width="35" stroke-linejoin="round" stroke="#000000" stroke-opacity="1" x1="128.459" y1="337.833" x2="163.459" y2="337.833"/>
		<line fill="none" stroke-width="35" stroke-linejoin="round" stroke="#000000" stroke-opacity="1" x1="187.623" y1="337.833" x2="222.623" y2="337.833"/>
		<line fill="none" stroke-width="35" stroke-linejoin="round" stroke="#000000" stroke-opacity="1" x1="244.289" y1="337.833" x2="279.289" y2="337.833"/>
		<line fill="none" stroke-width="35" stroke-linejoin="round" stroke="#000000" stroke-opacity="1" x1="303.633" y1="337.833" x2="338.633" y2="337.833"/>
		<line fill="none" stroke-width="35" stroke-linejoin="round" stroke="#000000" stroke-opacity="1" x1="361.29" y1="337.833" x2="396.29" y2="337.833"/>
	</g>
	<g>
		<line fill="none" stroke-width="35" stroke-linejoin="round" stroke="#000000" stroke-opacity="1" x1="409.71" y1="206.167" x2="444.71" y2="206.167"/>
		<line fill="none" stroke-width="35" stroke-linejoin="round" stroke="#000000" stroke-opacity="1" x1="468.874" y1="206.167" x2="503.874" y2="206.167"/>
		<line fill="none" stroke-width="35" stroke-linejoin="round" stroke="#000000" stroke-opacity="1" x1="525.54" y1="206.167" x2="560.54" y2="206.167"/>
		<line fill="none" stroke-width="35" stroke-linejoin="round" stroke="#000000" stroke-opacity="1" x1="584.884" y1="206.167" x2="619.884" y2="206.167"/>
		<line fill="none" stroke-width="35" stroke-linejoin="round" stroke="#000000" stroke-opacity="1" x1="642.541" y1="206.167" x2="677.541" y2="206.167"/>
	</g>
	<g>
		<line fill="none" stroke-width="35" stroke-linejoin="round" stroke="#000000" stroke-opacity="1" x1="439.792" y1="272.5" x2="474.792" y2="272.5"/>
		<line fill="none" stroke-width="35" stroke-linejoin="round" stroke="#000000" stroke-opacity="1" x1="498.957" y1="272.5" x2="533.957" y2="272.5"/>
		<line fill="none" stroke-width="35" stroke-linejoin="round" stroke="#000000" stroke-opacity="1" x1="555.622" y1="272.5" x2="590.622" y2="272.5"/>
		<line fill="none" stroke-width="35" stroke-linejoin="round" stroke="#000000" stroke-opacity="1" x1="614.966" y1="272.5" x2="649.966" y2="272.5"/>
		<line fill="none" stroke-width="35" stroke-linejoin="round" stroke="#000000" stroke-opacity="1" x1="672.623" y1="272.5" x2="707.623" y2="272.5"/>
	</g>
	<g>
		<line fill="none" stroke-width="35" stroke-linejoin="round" stroke="#000000" stroke-opacity="1" x1="419.792" y1="337.833" x2="454.792" y2="337.833"/>
		<line fill="none" stroke-width="35" stroke-linejoin="round" stroke="#000000" stroke-opacity="1" x1="478.957" y1="337.833" x2="513.957" y2="337.833"/>
		<line fill="none" stroke-width="35" stroke-linejoin="round" stroke="#000000" stroke-opacity="1" x1="535.622" y1="337.833" x2="570.622" y2="337.833"/>
		<line fill="none" stroke-width="35" stroke-linejoin="round" stroke="#000000" stroke-opacity="1" x1="594.966" y1="337.833" x2="629.966" y2="337.833"/>
		<line fill="none" stroke-width="35" stroke-linejoin="round" stroke="#000000" stroke-opacity="1" x1="652.623" y1="337.833" x2="687.623" y2="337.833"/>
	</g>
</svg>
